<svg xmlns="http://www.w3.org/2000/svg" width="32" height="32">
    <path d="M0 0h32v32H0z" fill="#ff1493" />
    <g transform="translate(15.606 .515) scale(.05191)" fill="#fff">
        <path d="M6.846 156.772L168.47 318.396 6.846 480.02-154.78 318.396z" />
        <circle cx="-72.25" cy="235.242" r="117.143" />
        <circle cx="87.441" cy="233.742" r="117.143" />
    </g>
    <g fill="#ff1493">
        <path d="M18.39 17.784c-.14.041-.252.057-.398.057-1.198 0-2.957-4.187-2.957-5.58 0-.513.121-.684.293-.83-1.466.17-3.226.709-3.788 1.392-.122.172-.196.44-.196.783 0 2.174 2.322 7.11 3.96 7.11.757 0 2.035-1.245 3.085-2.932M17.625 11.284c1.515 0 3.03.245 3.03 1.1 0 1.735-1.1 3.837-1.661 3.837-1.002 0-2.249-2.786-2.249-4.18 0-.635.245-.757.88-.757" />
    </g>
</svg>
